<?xml version="1.0" standalone="no"?>
<!DOCTYPE svg PUBLIC "-//W3C//DTD SVG 20010904//EN"
 "http://www.w3.org/TR/2001/REC-SVG-20010904/DTD/svg10.dtd">
<svg version="1.0" xmlns="http://www.w3.org/2000/svg"
 width="898.000000pt" height="980.000000pt" viewBox="0 0 898.000000 980.000000"
 preserveAspectRatio="xMidYMid meet">

<g transform="translate(0.000000,980.000000) scale(0.100000,-0.100000)"
fill="#ffffff" stroke="none">
<path d="M4850 9789 c-294 -32 -654 -125 -919 -235 -295 -124 -1203 -640
-1612 -915 -169 -115 -238 -195 -274 -323 -26 -88 -17 -213 19 -289 65 -135
246 -247 400 -247 136 0 486 122 1101 383 139 59 202 82 207 74 4 -7 8 -33 8
-58 0 -66 28 -216 47 -257 41 -85 174 -195 299 -246 66 -27 175 -36 679 -56
138 -5 277 -15 310 -21 84 -15 153 -52 248 -131 219 -185 640 -422 847 -479
111 -31 311 -33 440 -5 135 28 427 129 598 207 86 39 164 73 173 76 20 6 25
-32 38 -242 9 -144 19 -173 75 -223 62 -54 245 -97 456 -109 238 -12 805 63
919 122 62 31 65 48 58 360 -7 341 -17 451 -67 760 -22 132 -71 458 -110 725
-122 826 -146 990 -151 993 -2 2 -71 -2 -154 -9 -82 -7 -330 -24 -550 -38
-473 -31 -463 -30 -469 -59 -5 -23 -46 -403 -46 -425 0 -6 -8 -12 -18 -12 -41
0 -630 250 -989 419 -298 140 -543 217 -792 247 -151 18 -649 27 -771 13z
m525 -209 c258 -17 502 -67 711 -145 54 -21 191 -81 304 -135 322 -153 759
-339 961 -410 l37 -13 6 -121 c3 -67 9 -376 12 -688 l7 -568 -79 -36 c-162
-74 -393 -167 -523 -211 -120 -40 -150 -46 -277 -56 -188 -14 -280 -3 -394 47
-191 84 -427 227 -610 371 -272 212 -299 220 -830 235 -475 14 -537 25 -628
113 -67 64 -76 89 -76 188 1 140 49 268 116 309 43 26 212 65 388 89 283 39
499 54 1102 77 l166 6 4 107 c2 58 1 109 -2 112 -6 6 -289 -4 -610 -21 -491
-26 -959 -96 -1118 -166 -30 -13 -82 -45 -115 -70 -175 -133 -1131 -534 -1404
-589 -100 -20 -146 -10 -205 43 -97 87 -103 204 -15 299 133 145 1412 890
1775 1034 314 125 671 192 1097 207 28 1 118 -3 200 -8z m3075 -175 c7 -8 48
-259 91 -557 44 -299 100 -673 125 -833 71 -455 104 -762 104 -971 l0 -52 -67
-12 c-293 -51 -678 -73 -898 -50 -66 6 -121 13 -122 14 -5 5 -43 653 -53 895
-13 331 -13 902 1 1111 14 214 34 389 46 401 15 15 118 28 383 48 318 24 374
25 390 6z"/>
<path d="M4965 6415 c-213 -46 -436 -193 -596 -393 -34 -42 -65 -78 -69 -80
-4 -1 -43 37 -88 86 -226 248 -492 362 -842 362 -259 0 -470 -66 -650 -205
-130 -100 -267 -284 -318 -427 -34 -97 -42 -289 -18 -432 76 -443 400 -888
971 -1331 195 -152 380 -285 585 -420 227 -151 332 -209 360 -200 114 36 697
541 1193 1034 502 498 608 654 662 981 23 132 16 318 -14 435 -27 100 -80 214
-133 283 -106 137 -357 262 -617 306 -114 19 -340 20 -426 1z m381 -210 c284
-46 464 -157 557 -343 l42 -85 4 -141 c5 -212 -19 -329 -100 -486 -56 -109
-142 -212 -390 -465 -382 -389 -795 -766 -1136 -1034 l-42 -34 -48 28 c-69 40
-419 277 -553 376 -542 395 -888 778 -1025 1134 -99 257 -98 423 1 625 37 75
62 110 123 170 78 78 178 145 273 182 47 19 79 22 269 26 259 5 324 -3 435
-57 159 -76 240 -145 386 -331 42 -52 85 -104 97 -114 23 -21 78 -24 111 -6
11 6 64 70 118 143 167 222 303 334 480 391 114 38 251 45 398 21z"/>
<path d="M495 3080 c-314 -44 -363 -53 -412 -77 -63 -30 -68 -49 -71 -328 -4
-303 3 -387 73 -810 29 -181 72 -463 95 -625 42 -300 131 -903 151 -1019 l11
-63 112 6 c61 4 317 20 569 37 252 16 462 29 467 29 17 0 30 67 51 259 12 108
25 200 29 205 17 17 479 -171 899 -366 377 -175 527 -229 766 -273 219 -40
330 -50 550 -49 450 1 931 99 1299 265 323 146 1131 603 1511 854 229 152 300
229 340 369 26 88 17 224 -18 293 -58 113 -202 212 -343 236 -54 9 -79 8 -151
-6 -168 -35 -435 -132 -933 -340 l-275 -115 -7 41 c-3 23 -11 83 -17 132 -14
115 -60 215 -128 275 -70 62 -212 128 -309 145 -45 8 -224 19 -405 25 -364 12
-490 23 -564 51 -31 11 -105 62 -192 131 -355 283 -787 487 -1031 488 -179 0
-490 -84 -789 -216 -209 -91 -223 -97 -228 -92 -2 2 -10 78 -16 169 -6 90 -16
182 -21 204 -15 61 -82 119 -165 145 -102 30 -251 50 -418 55 -135 4 -177 1
-430 -35z m619 -204 c114 -3 162 -8 172 -18 22 -23 44 -331 65 -923 20 -564
-3 -1413 -40 -1474 -10 -16 -95 -27 -346 -45 -394 -29 -431 -30 -438 -12 -4 9
-47 292 -97 628 -50 337 -111 744 -135 903 -50 323 -72 544 -77 745 l-3 135
155 28 c151 27 391 45 525 40 33 -1 131 -5 219 -7z m1518 -251 c239 -50 520
-197 818 -430 198 -154 243 -178 393 -209 88 -18 380 -36 607 -36 279 -1 368
-22 460 -107 79 -73 88 -101 72 -239 -17 -158 -57 -232 -144 -268 -50 -21
-188 -51 -344 -75 -254 -39 -586 -63 -1045 -77 l-227 -7 -6 -36 c-3 -20 -6
-71 -6 -113 l0 -78 103 5 c56 3 208 10 337 15 404 18 656 41 925 86 282 46
384 80 469 153 60 52 214 130 496 251 544 233 875 350 993 350 59 0 113 -26
156 -76 40 -45 51 -73 51 -131 0 -61 -22 -102 -85 -162 -187 -177 -1455 -903
-1806 -1034 -330 -124 -656 -177 -1079 -177 -474 0 -693 52 -1184 282 -232
109 -664 295 -816 352 -181 68 -174 63 -181 121 -4 28 -10 336 -14 685 l-8
635 174 79 c268 122 470 192 679 237 107 22 122 22 212 4z"/>
</g>
</svg>
