<svg xmlns="http://www.w3.org/2000/svg" width="1090" height="2342" viewBox="0 0 1090 2342">
  <defs>
    <style>
      .cls-1 {
        fill-rule: evenodd;
      }
    </style>
  </defs>
  <path id="Color_Fill_1" data-name="Color Fill 1" class="cls-1" d="M420,0H520V9h1V2351.32c-1.467,5.25-1,14.15-1,21H420V0ZM550,0H658V2372.32H550V0ZM699,89.012l13,1-1,3h1c1.934,1.783,8.393,1.1,12,1v2h-2v1h3v1h11v1c1.139,1.14.4,0,1,2h-2v1h14v4h12v1h1v3h11v1h1v3l13,1v4h12q0.5,4,1,8h7v1h1v3h15v1h1q0.5,3.5,1,7a50.253,50.253,0,0,1,12,1v8h4v4h16v1h1v3h7v1h1v7h1c0.771,1.016,1.229.985,2,2a46.008,46.008,0,0,1,9-1v4h5v4h3v1h1v7h4v4a144.41,144.41,0,0,1,16,1q0.5,4,1,8h4v4h4v4h4v3h1v1h3q0.5,2,1,4h3v1h1v3h1v1h3v4h3v1h1v3c2.762,0.724,2.237.279,3,3h1v5h4q0.5,2,1,4h3v1h1v3l7,1q0.5,2,1,4h4v4h4v4h4v3h1v1h6v1l2,1v12s0.7,0.19,1,2a19.168,19.168,0,0,0,7,1v4h4v12l7,1q0.5,2,1,4h4q0.5,8,1,16h7a12.64,12.64,0,0,1,1,5h3v1c2.09,2.285,1.1,10.885,1,15h4c3.44,5.729,5.08,2.617,5,13h3v1c1.68,1.819,1.1,7.562,1,11h7c1.51,4.051,1.05,11.388,1,17h4a60.7,60.7,0,0,0,1,12l6,1v1c2.33,2.449,1.03,12.373,0,15h5c1.54,0.981,1.14,17.378,1,21,2.76,0.724,2.24.28,3,3,2.14,2.384,1.09,20.879,1,26h6c2.6,5.054,2,12.206,2,20v38l3,1V587.08c0,5.41,1.27,24.4-1,27-1.14,1.139,0,.4-2,1v24l-4,1v16h-2q-1.005,10.5-2,21v12c-1.33.666-2.67,1.333-4,2v4c-0.2,5.359.75,11.249-2,14v1h-4v1c2.39,2.541.59,11.181,0,14h-2c-0.33.666-.67,1.333-1,2h-4v16c-1.13.844-.15-0.127-1,1h-3v16l-8,1a60.7,60.7,0,0,1-1,12h-3v7l-3,1c-1.14,1.139,0,.4-2,1a8.409,8.409,0,0,1-2,4h-1c-0.33,2.333-.67,4.667-1,7-0.67.333-1.33,0.667-2,1v3h-1c-0.33,3-.67,6-1,9h-2c-0.33,1.333-.67,2.667-1,4h-1v8c-1.33.667-2.67,1.334-4,2-0.96,1.776-.27,9.049-1,11h-3v3c-2.078,1.094-1.771,1.611-5,2v3l-8,1a131.34,131.34,0,0,1-1,15l-3,1c0.16,4.5.2,8.868-2,11-1.139,1.139,0,.4-2,1v4a12.71,12.71,0,0,1-5,1v3h-1c-1.139,1.139,0,.4-2,1q-0.5,4-1,8c-2.393.607-1.858,0.318-3,2h-1v6h-1v1h-7a8.165,8.165,0,0,1-1,4h-1c0.221,0.966,2.276,4.832,1,7h-1c-1.139,1.139,0,.4-2,1v4a39.688,39.688,0,0,1-8,1c-0.343,2.288-1.654,3.818-1,7,0.285,1.385,1.164-.4,1,1h-1v7h-1v1h-7v4h-4v4h-4a67.857,67.857,0,0,1-1,13h-4v4h-8v4h-4v12h-1v1h-3v4h-4v3h-1v1h-3q-0.5,2-1,4h-4l-1,3c-3.075.626-3.462,1.6-7,2v16.006h-4v3h-1v1h-4v3l-8,3v3h-4v4h-4v4h-4v3h-1v1h-3c-0.333,1.33-.667,2.67-1,4h-4v3h-1v1c-2.333.33-4.667,0.67-7,1v6c-3.791,1.72-3.445,2.17-5,6h-3v3h-1v1h-3v3h-1v1h-3c-0.333,1.34-.667,2.67-1,4-1.333.34-2.667,0.67-4,1v3h-1v1h-3v4.01h-4v4h-4v4h-4v4h-4v3c-2.078,1.09-1.771,1.61-5,2v4h-4v4h-4v4h-4v4h-2c-0.717,2.92-2.713,5-4,8h-3v4h-3v1h-1v3h-1v1h-3v3h-1v1h-3v4h-4v3h-1v1h-3c-0.333,1.34-.667,2.67-1,4q-3.5.51-7,1v1h-1v3h-4v4.01h-4v4h-4v3h-1v1h-3c-0.333,1.33-.667,2.66-1,4h-3v1h-1v3h-3v1h-1v3h-1v1h-3c-0.28,4.43-1.244,4.44-3,7h-1v5h4v4h8c0.333,1.33.667,2.67,1,4h3v1h1v3h3v1h1v3h3v1h1v4h4v4h4v4q3,2.5,6,5v2q3.5,3,7,6.01v2h1c1.375,1.48.51,1.31,3,2,0.684,2.92,1.113,3.27,4,4v3h1v1h3v4h4c0.844,1.13-.127.14,1,1v3h3v1h1v3h3v1h1v3c1.333,0.33,2.667.67,4,1v3h1v1h3v4h4v3h1v1h3v1h1v3h3v1h1v3h3v1h1v3c1.333,0.34,2.667.67,4,1v3h1v1h3v4h4v3h1v1h3v1h1v3.01h3v1h1v3h3v1h1v3c1.333,0.33,2.667.66,4,1v3h1v1h3v4c4.368,0.23,4.534,1.2,7,3v1q2.5,0.495,5,1v3c1.667,0.33,3.333.67,5,1v3h1v1h3v4h4v4h4v3h1v1h3v1h1v3h3v1h1v3h3v1h1v3c4.428,0.58,2.619.83,5,3v1q3.5,1,7,2v3h4c0.138,5.1,2.154,10.16,0,15.01h1v1h3v1h1v3q4,0.495,8,1v4h4v4h4c0.3,4.35,1.9,7.75,0,12h1v1h3c0.738,3.22,1.357,3.64,5,4v3c2.666,0.33,5.334.67,8,1v14c1.232,0.78,2.723,3.33,3,3v-1a12.638,12.638,0,0,0,5,1v3c3.137,0.56,4.19.98,5,4,3.469,0.62,5.168,1.65,6,5h1l1,12.01a33.744,33.744,0,0,1,8,1v6c1.8,0.94,1.574,1.38,4,2q0.5,7.995,1,16c2.333,0.33,4.667.67,7,1v1c1.139,1.14.4,0,1,2,1.333,0.33,2.667.67,4,1v4h3v1c2.192,2.4,1.1,11.72,1,16,4.586,0.66,2.458.91,5,3v1h3v4c3.032-.98,4.357.23,8,1q0.5,6.51,1,13.01h1v2h1c0.33,1.66.67,3.33,1,5,0.67,0.33,1.33.66,2,1-0.33.66-.67,1.33-1,2,1.41-.16-0.39-0.73,1-1s-0.19.24,1,1c2.02,1.28,1.95,1.67,2,5h3v1c2.09,2.28,1.1,10.88,1,15,2.67,0.33,5.33.67,8,1a98.79,98.79,0,0,1,1,16h3v1c1.68,1.82,1.1,7.56,1,11,2.67,0.34,5.33.67,8,1v16.01c1.33,0.33,2.67.66,4,1a53.478,53.478,0,0,0,1,11c2.33,0.66,4.67,1.33,7,2v5c1.61,5.22-.65,14.85,1,20h1v3c0.67,0.34,1.33.67,2,1,0.33,2.67.67,5.34,1,8h3v1c1.5,1.69,1,5.82,1,9v23.01h1c1.14,1.14,0,.4,2,1,0.43,4.87.99,10.84,1,17h2v2c0.67,0.33,1.33.67,2,1v22h2c1.33,7.42,1.01,18.03,1,27.01h2v31h-2v29.01c0,3.52.71,9.07-1,11-1.14,1.14,0,.4-2,1v57c-2.32.88-4.41,1.02-8,1.01v29h-4v20a12.6,12.6,0,0,1-5,1v4h-1c-0.18,1.41.7-.38,1,1v11h-2v2h-2c-0.33,1-.67,2-1,3h-3v8.01h-4v16a12.781,12.781,0,0,1-5,1v3c-1,.33-2,0.67-3,1-0.33,2.33-.67,4.67-1,7h-1c-1.14,1.14,0,.4-2,1q-0.495,6-1,12c-1,.33-2,0.67-3,1-0.33,2.67-.67,5.34-1,8h-4v4h-4a60.611,60.611,0,0,1-1,12,7.194,7.194,0,0,0-4,1v-1c-1.14,1.14-.4.01-1,2.01-4.18,3.83-.16,9.23-2,15h-1c-0.64,1.76-.45,2.61-1,4q-3.5.495-7,1v4c-1-.33-2-0.67-3-1v2c-1.682,1.82-1.1,7.56-1,11h-4v4c-3.487.25-5.68,1.1-7,0h-1v4h-1v1h-3q-0.5,3-1,6a2.872,2.872,0,0,1,1,3h-1v6a34.091,34.091,0,0,1-7,1l-5,6h-1c0.333,0.67.667,1.34,1,2-0.542,1.31-.5-0.32-1,1l-1-1c-1,.34-2,0.67-3,1,0.333,1,.667,2.01,1,3.01h-1v1h-3l1-2.01h-1c-0.667,2-1.333,4.01-2,6.01h-7l1,1q-0.5,1.5-1,3h-4v4h-4v11c-1.8.94-1.574,1.38-4,2a34.268,34.268,0,0,1-1,8H919v-1h-1v1h-2v4h-4a29.367,29.367,0,0,1-1,7c-1,.33-2,0.67-3,1v4h-1v1h-3v3h-1v1h-3v3h-1v1h-4c-0.755,1.2.829,0.5,1,1q-0.5,1.5-1,3h-4v4c-4.238.09-6.535,1.67-10,0v1c-2.943,1.66-8.316,7.07-10,10.01h1a3.952,3.952,0,0,1,2-2v3h-1v1h-3v4H859v1h2v2a98.737,98.737,0,0,1-16,1l1,1c0.222,1.39-.713-0.39-1,1v6h-4v5h-8v3h-1c-2.4,2.19-11.713,1.1-16,1v4h-4c-1.4-.22.413-1.05-1-1v1h-2v1h-1v3a25.683,25.683,0,0,1-4-1v1c-1.884.71-3.8,0.69-5,2v2c-0.667-.33-1.333-0.67-2-1v1c-2,.67-4,1.33-6,2v1h2c1.139-1.14,0-.4,2-1v2c-3.333.33-6.667,0.67-10,1,1.139,1.14,0,.4,2,1q-0.5,1.5-1,3h-5c-0.25-.05-0.327-1.29-2-1v1h-2c1.205,1.89.854-.38,2,1q-0.5,1.5-1,3c-3.577.07-5.714-.13-8-1-0.147,6.43-2.707,5.34-9,5v3h-1c-1.819,1.69-7.561,1.1-11,1l1,1q-0.5,1.5-1,3h-6v1c-1.4.18,0.381-.69-1-1h-5a11.9,11.9,0,0,1-1,5.01c-2.487-.78-7.943-0.06-13,0-0.723,2.76-.279,2.23-3,3-2.346,2.1-19.99,1.08-25,1v3c-4.559.86-6.314,0.47-11,0-0.333-1.67-.667-3.34-1-5h-1V2050.28c0-20.1-.69-42.54,1-61.01h4v-3h1v-1h7v-3h1v-1h5c0.092-.03-0.186-0.62,2-1q0.5-1.5,1-3c2.666-.33,5.334-0.67,8-1v-3h1v-1h3v-3h2v-1h5v-1c2.569-2.12.41-2.29,5-3v-3h1v-1h3v-1h1v-3h4v-4h4v-4.01h3v-1h1v-3h3v-1h1v-3c1.333-.33,2.667-0.66,4-1,0.333-1.33.667-2.66,1-4h3v-1h1v-3h4v-4c1.135-.84.145,0.13,1-1h3v-3h1v-1h3v-7c1.135-.84.145,0.13,1-1h3v-3h1v-1h3a34.2,34.2,0,0,1,1-8h3a19.16,19.16,0,0,1,2-7c1-.34,2-0.67,3-1v-5h4v-8h4a60.787,60.787,0,0,1,1-12.01h3v-8c1.135-.84.145,0.13,1-1h3a60.749,60.749,0,0,1,1-12c1-.33,2-0.67,3-1q0.5-7.995,1-16h4c-0.077-8.65-.311-18.91,1-26,1-.34,2-0.67,3-1v-34.01h-1v-6c-1-.33-2-0.67-3-1v-24h-3v-1h-1q-0.5-7.5-1-15.01h-1c-1.139-1.13,0-.39-2-1q-0.5-7.995-1-16h-1c-1.139-1.14,0-.4-2-1q-0.5-10.005-1-20h-1c-1.139-1.14,0-.4-2-1v-3h-1c-1.887-6.59,2.081-14.98-2-19-1.139-1.14,0-.4-2-1v-1h-4v-8.01h-4c-0.024-2.17-1.054-10.97-2-12-1.139-1.14,0-.4-2-1q-1-6-2-12h-5c-1.339-2.52-1.99-3.5-2-8-1.333-.33-2.667-0.67-4-1v-16h-4v-4h-8a12.755,12.755,0,0,1-1-5h-3c-0.5-5.66-.99-12.98-1-20.01h-7c-0.844-1.13.127-.14-1-1v-3q-3.5-.495-7-1c-0.668-4-1.256-11.01-2-15h-1v-1h-6c-1.965-1.28-1.125-9.83-1-13h-3v-1c-1.139-1.14-.4,0-1-2-2.666-.33-5.334-0.67-8-1v-15l-8-3v-2q-2.5-.51-5-1v-3c-1.333-.34-2.667-0.67-4-1V1498.2h-4v-4h-7c-0.844-1.13.127-.14-1-1-1.5-16.53-1-36.86-1-55V875.119c0-10.213-.543-22.381,1-31l4-1v-4h3v-1h1v-3h2c0.789-3.229,1.856-3.449,2-8h3a39.689,39.689,0,0,0,1-8h3v-1l3-8h3v-3h1v-1h7c-0.178-5.376-.688-12.375,2-15v-1l10-1q0.5-8,1-16h8v-4h4v-8h1v-1h3v-12h4v-4a39.688,39.688,0,0,1,8-1q0.5-4,1-8l4-3v-13l8-1v-12h4c1.049-2.4,1.12-3.212,4-4q0.5-6,1-12h3a32.939,32.939,0,0,1,2-13h3v-4h4v-4h3v-1c4.127-4.864-1.95-21.966,3-27,1.139-1.139,0-.4,2-1v-4h1v-1h3q0.5-8,1-16h1v-2l2-1v-9c0.008-6.839-.51-15.775,1-21v-7l4-2v-12h3v-1h1v-28l-8-1v-5h-1v-28l-3-1q-0.5-7.5-1-15l-4-1v-16h-6c-2.245-4.261-2.086-6.269-2-13h-4v-12h-3v-1c-1.93-2-2.065-6.882-2-11l-7-1c-0.738-3.218-1.357-3.642-5-4v-3h-1v-1h-5c-3.162-1.8-2.121-11.075-2-16-3.543-.317-3.949-1.314-7-2v-2l-6-2v-3c-2.927-.684-3.274-1.113-4-4h-8v-4h-4q-0.5-2-1-4c-3.217-.738-3.641-1.357-4-5h-3v-1h-1v-7h-4v-4a89.161,89.161,0,0,1-16-1q-0.5-3.5-1-7h-1c-1.967-2.281-1.846-.272-3-4l-12-1v-3h-1v-1h-3c-1.646-9.229-1-22.17-1-33V262.036c0-58.385-.427-119.291,1-176.024a91.192,91.192,0,0,1,15-1v1h1v3Zm-304,5V360.049l-8,1v3a39.609,39.609,0,0,1-8,1v3h-1v1h-4v3l-8,2v3l-4,1v3l-4,1v3l-4,1c-1.047,3.719-2.059,2.7-4,5h-1v3h-4v4h-4v4h-3v1h-1v3l-4,1v3h-1v1h-3v6c-1.8.944-1.574,1.385-4,2l-1,4h-3a46.249,46.249,0,0,1-2,8h-3v4c-1.135.844-.145-0.127-1,1h-3v7c-1.135.845-.145-0.127-1,1h-3v7c-1.135.845-.145-0.127-1,1h-3v7c-1.135.845-.145-0.126-1,1h-3q-0.5,4.5-1,9h-3q-0.5,5.5-1,11c-1.135.845-.145-0.127-1,1h-3v11c-1.135.844-.145-0.127-1,1h-3v13h-4v20h-1v1h-3v40c0,4.054-1.02,11.708,1,14,1.139,1.139,0,.4,2,1,0.965,5.382,1.011,13.149,1,20h3v1c1.5,1.686,1,5.82,1,9v23l4,1v16h3v1c2.321,2.5,2.09,10.9,2,16h3v2c6.569,3.364,5.293,8.429,5,18h3v1h1v8h3l1,4h4v12l4,1q0.5,6,1,12h3q0.5,6,1,12c5.431,1.314,4.279,6.541,4,13h7c0.844,1.135-.127.146,1,1v3h4v4h3v1c1.235,1.373,2.034,12.724,2,16l3,1v3h4c0.844,1.135-.127.146,1,1v3l7,1c0.727,6.442,1.809,6.639-1,12,3.137,0.561,4.19.975,5,4h5c-0.036,2.863.711,10.616,2,12,1.139,1.138,0,.4,2,1v3l5,1v4h7c0.844,1.135-.127.145,1,1v4c0.425,0.95,3.844,1.363,3,4h-1v2h-2v1c3.956,0.192,6.057.56,7,4,1.8,2.072,1,8.281,1,12V1505.2c-2.316.88-4.407,1.02-8,1v4.01c-1.333.33-2.667,0.66-4,1l-1,3h-3a67.889,67.889,0,0,1-1,13h-4v3h-1v1h-7a82.06,82.06,0,0,1-1,15c-1,.33-2,0.67-3,1v1h-8v7c-1.135.85-.145-0.13-1,1h-3a60.68,60.68,0,0,1-1,12c-1,.34-2,0.67-3,1q-0.5,6-1,12h-4v4.01c-1.333.33-2.667,0.66-4,1v3c-1.333.33-2.667,0.66-4,1v11c-2.316.87-4.407,1.02-8,1q-0.5,6-1,12h-3q-0.5,5.505-1,11c-1,.33-2,0.67-3,1v1h-5v16c-0.667.34-1.333,0.67-2,1v2h-2v6h-4c-0.627,4.61-.943,2.46-3,5.01h-1v10c-0.006,7.07-.129,13.09-2,18h-3v4h-3v1c-2.848,3.25,1.067,10.62-1,15l-4,3v31.01q-4,.495-8,1v77.01a58.938,58.938,0,0,0,8,2v29c2.762,0.72,2.237.28,3,3,2.3,2.52,1.1,12.55,1,17h3v1c1.93,2,2.065,6.89,2,11.01,7.991,0.34,8.422,1.38,8,10,1,0.33,2,.66,3,1,0.11,2.02.944,8.86,2,10v1c2,0.33,4,.67,6,1l1,10h-4v1a9.655,9.655,0,0,1,4,1v3h7l1,3c1.583,1.71,1.1,6.73,1,10h6l1,3h1v5h4v4h3v1h1v4h3v1h1v6.01l1,1c3.309-1.28,8.442-.4,12,1v3h8v4c1.135,0.84.145-.13,1,1h3c-0.014,8.2.891,4.76,4,9h1a3.592,3.592,0,0,0,0,3c1.84,0.69,1.2,1.22,3,0v2h1v1h2v1c1.667-.33,3.333-0.67,5-1v1c5.9,1.81,2.8-1.56,7,3,0.667,0.33,1.333.67,2,1v265.04a7.429,7.429,0,0,0-3,2c-1.333-.34-2.667-0.67-4-1v-3a96.3,96.3,0,0,1-17-1v-3c-5.075.16-10.907-.04-12-1.01h-1v-3h-1v-1h-2v1h-1v-1H341v-4H325q-0.5-3.99-1-8H312v-8c-1.667-.33-3.333-0.67-5-1v1h-4v-1c-1,.33-2,0.67-3,1v-1h-1c-0.642-1.13-.055-2,1-2v-1h-2c-1.819-1.68-7.561-1.1-11-1v-2h2c-4.075-3.89-10.363.06-14-2v-1h-1v-1c0.333-.67.667-1.33,1-2H262v-4h-4q-0.5-4.005-1-8a34.091,34.091,0,0,0-7-1v-3c-4.957-.85-7.736-1.03-15-1-0.656-1.34-1.569-1.35-2-2,0.333-.67.667-1.34,1-2h-5q-0.5-4.005-1-8H217v-1h-1v-3h-4v-4.01c-1.333-.33-2.667-0.66-4-1q-0.5-3.99-1-8H196c-0.663-4.28.848-4-5-4-1.72-2.13-2.033-.56-3-4h-1v-4h-4c-0.333-1.66-.667-3.33-1-5-0.667.33-1.333,0.67-2,1-2.216-1.38-2.189-5.18-2-9h-4v-4h-6c-0.945-1.8-1.385-1.58-2-4h-3v-1h-1v-3h-4v-4c-1-.34-2-0.67-3-1,0,0-.164,2.14-1,1v-2h-1v-3h-4v-4h-4v-4h-4v-4a29.776,29.776,0,0,1-7-1q-0.5-1.5-1-3h-4c-0.434-4.88-.989-10.84-1-17.01h-4v-4h-8v-4h-4v-13h-4c-0.826-5.05-.443-4.22-8-4v-1c-2.165-2.51.777-7.7-1-11-1-.34-2-0.67-3-1q-1-2.01-2-4H88v-1H87c-1.8-3.27,1.181-8.51-1-11-1.139-1.14,0-.4-2-1-0.276-1.84-2.106-10.06-3-11.01v-1H75c-0.812-4.05-1.534-7.95,0-12H70c0.072-3.55-.157-6.78-1-9-0.667.33-1.333,0.67-2,1v-1c-1.783-1.93-1.1-8.39-1-12H62v-12H54c-0.842-2.23-1.029-5.44-1-9-1-.34-2-0.67-3-1-0.505-5.66-.989-12.98-1-20.01-2.762-.72-2.237-0.28-3-3-2.4-2.64-1.1-13.37-1-18H42c-0.412-4.63-.989-10.12-1-16H38v-1c-2.192-2.41-1.1-11.72-1-16H33q-0.5-10.5-1-21.01H29v-5H28v-24H26l-1-105.01c1.623-5.81,1-15.57,1-23.01h2c-0.058-7.63.394-15.78,1-22h3q0.5-7.995,1-16c1-.34,2-0.67,3-1,0.377-8.45.977-19.12,1-29.01h4c-0.058-7.93.368-16.5,1-23,2.2-.39,6.153-1.32,7-3v-13s0.721-.21,1-2h3a157.594,157.594,0,0,1,1-17.01h4q-0.5-4.995-1-10h1v-6q4-.495,8-1v-11c1.135-.84.145,0.13,1-1h3v-8a19.149,19.149,0,0,1,7-1l2-12c1-.34,2-0.67,3-1q0.5-5.505,1-11h2a3.953,3.953,0,0,1,2-2V1506.2h4v-12c1.333-.33,2.667-0.66,4-1v-3h1v-1h4v-3a34.794,34.794,0,0,1,7-1c-0.148-7.59-.029-14.75,2-20h3v-5h8a89.129,89.129,0,0,1,1-16,29.776,29.776,0,0,0,7-1,60.787,60.787,0,0,1,1-12.01h8v-4h3v-1h1v-3h4v-12c1.135-.84.145,0.13,1-1h3c0.333-1.33.667-2.67,1-4h7a67.822,67.822,0,0,1,1-13h4v-3h1v-1h7v-11c1.135-.85.145,0.12,1-1h3v-8c1.333-.34,2.667-0.67,4-1l1-3a39.261,39.261,0,0,1,8-1v-4.01h4v-4h4v-3h1v-1h3v-4h4v-4c1.135-.84.145,0.13,1-1h3q0.5-3.99,1-8h4v-4h4v-8h4v-4c1.333-.33,2.667-0.67,4-1q0.5-3,1-6h1c1.139-1.14,0-.4,2-1,0.333-1.67.667-3.34,1-5h3c0.333-1.34.667-2.67,1-4h4v-4c1.333-.34,2.667-0.67,4-1q0.5-3.51,1-7h3v-4.01c1.333-.33,2.667-0.66,4-1v-3h1v-1h3c0.333-1.33.667-2.66,1-4h4v-4h4v-4h4v-3h1v-1h3c0.333-1.33.667-2.67,1-4a34.794,34.794,0,0,1,7-1v-4h4v-3h1c1.166-1.36,1.825-1.53,4-2v-3c1.333-.33,2.667-0.67,4-1v-3h1v-1h3v-3h1v-1h3v-3h1v-1h3v-3h1v-1h3c0.333-1.34.667-2.67,1-4h4v-4h3v-1h1v-3c1.333-.34,2.667-0.67,4-1v-3h1v-1h3v-3.01h1v-1h3c0.333-1.33.667-2.66,1-4h4v-4h4v-4h4v-4h4v-3h1v-1h3v-1h1v-3c1.667-.33,3.333-0.67,5-1v-2h2c0.333-.67.667-1.33,1-2h4v-12h-7v-1h-1v-3h-4v-1h-1v-3c-1.333-.34-2.667-0.67-4-1v-4h-4v-4h-4v-4h-4c-0.333-1.34-.667-2.67-1-4h-3v-1h-1v-3.01h-3v-1h-1v-4h-4v-4c-4.074-.94-4.166-2.93-4-8h-4v-4h-4v-3c-1.8-.94-1.574-1.38-4-2a39.669,39.669,0,0,1-1-8h-4v-4h-4v-4h-4v-4h-3v-1h-1v-3h-1v-1h-3v-4h-3v-1h-1v-3h-3v-1h-1v-3h-4v-1h-1v-3h-3v-1h-1v-3h-3v-1h-1v-3.01h-3l-1-3c-1.054-1.19-3.155-1.55-5-2v-4h-4v-4h-4v-4h-4v-4h-4v-4c-2.666-.33-5.334-0.67-8-1v-3h-1v-1h-3v-1h-1v-3h-3v-1h-1v-3h-4v-4h-3v-1c-2.192-2.4-1.1-11.72-1-16l-1,1c-1.4.22,0.385-.72-1-1h-6v-4h-4c-0.844-1.14.127-.15-1-1v-3h-4v-4h-4v-4h-4c-0.547-4.191-1.823-3.988-3-8h-1l1-3a7.49,7.49,0,0,0,3-2h-4q-0.5-2-1-4h-3v-1h-1v-3h-6c-0.945-1.8-1.385-1.575-2-4h-3v-1h-1v-3l-4-1v-12h-4v-3h-1v-1h-6c-3.169-1.75-2.119-11.11-2-16h-1v-1h-7v-4a29.312,29.312,0,0,1-7-1v-1h-1v-5h-1v-9h-1v-1h-6l-1-1v-3h-3v-1c-2.192-2.4-1.1-11.714-1-16h-3v-1h-1v-7h-8v-3h-1v-1h-3c-1.606-1.244-1.07-6.19-1-9h-3l-1-12c-2.762-.724-2.237-0.279-3-3-1.485-1.593-1.092-5.893-1-9H88v-1H87c0.117-3.435.669-9.186-1-11v-1H83v-1H82v-3H79l-1-13H75v-1c-1.682-1.819-1.1-7.562-1-11H71v-1H70v-3H66v-16a39.547,39.547,0,0,0-8-1l-1-12H54v-1c-1.485-1.594-1.092-5.893-1-9H51l-1-4H49v-14H48l-2-6H41v-21l-3-2v-2H37v-20c-6.7-.262-8.265-0.577-8-8-2.126-2.41-1-10.777-1-15l1-21H28v-15H26c0-10.985,1.57-25.8-1-35l1-89.012h2c-0.163-6.763-1.134-21.721,2-25,1.139-1.139,0-.4,2-1-0.178-5.569-.8-13.26,2-16v-1h3v-36h1v-1h3v-15c2.523-1.339,3.5-1.99,8-2v-16l4-1v-15a12.673,12.673,0,0,1,5-1l-1-11h1v-5c2.316-.876,4.407-1.018,8-1v-11c1.135-.844.145,0.127,1-1h3v-9c4.53-.616,2.517-0.881,5-3v-1h2l1-11h1l1-4h2l1-6h4v-3h1v-1h7c-0.086-5.53-1.917-5.113-3-9,2.581-1.5,3.372-3.571,4-7l7-1a60.7,60.7,0,0,1,1-12h4v-4h8v-15c2.523-1.339,3.5-1.99,8-2v-3h1v-1h3q0.5-2,1-4h4c0.607-2.394.318-1.859,2-3v-1c1.878-1.206,4.271-.255,6,0v-1c-5.473-1.355-4.019-6.341-3-11h3v-5h4v-3h1v-1h7v-4l3-1v1h1v-3l2-1v-1c1.41-.1.041-0.039,1,1,1.91-1.139,2.128-2.935,3-5h3v-3l4-1q0.5-3.5,1-7c3.217-.738,3.641-1.357,4-5h16v-8c1.135-.844.145,0.127,1-1h3v-3h1v-1h3v-4h4v-4h13v-8h4v-4c2.232-.842,5.438-1.03,9-1v-3h1v-1h7v-7c2.874-1.079,7.691-1.044,12-1q0.5-2,1-4h3a11.879,11.879,0,0,1,1-5l1,1,3-1v-3h1c1.819-1.682,7.561-1.1,11-1v-3h1c1.934-1.783,8.393-1.1,12-1v-4h12v-3h1v-1h8q0.5-3,1-6c1.8-.945,1.574-1.385,4-2,0.748-.688,3.138-1.027,7-1v-3h1c2.524-2.39,13.272-1.07,16,0-0.223-4.931-1.073-6.85,3-8,1.593-1.485,5.892-1.092,9-1v-3h1c2.4-2.192,11.713-1.1,16-1v-4C372.794,94.034,382.317,94.038,395,94.013ZM767,2227.3c1.139,1.14,0,.4,2,1C767.861,2227.16,769,2227.9,767,2227.3Zm-10,4c1.139,1.14,0,.4,2,1C757.861,2231.16,759,2231.9,757,2231.3Z"/>
</svg>
